<svg xmlns="http://www.w3.org/2000/svg" width="34" height="34"><path fill="gray" d="M8.826 12.421a3.542 3.542 0 105.008-5.009 3.542 3.542 0 00-5.008 5.009zm6.51-6.511a5.667 5.667 0 11-8.013 8.014 5.667 5.667 0 018.014-8.014zm7.241 6.926a2.125 2.125 0 103.006-3.005 2.125 2.125 0 00-3.006 3.005zm4.508-4.508a4.25 4.25 0 11-6.01 6.01 4.25 4.25 0 016.01-6.01zM16.642 18.417c.427 0 .833.085 1.206.235a3.556 3.556 0 00-1.973 1.89H6.017a1.062 1.062 0 00-1.062 1.062v.364l.01.114c.01.104.032.266.078.466.093.398.28.929.65 1.457.698 1 2.206 2.203 5.637 2.203 1.993 0 3.336-.406 4.25-.942v2.353c-1.12.442-2.517.714-4.25.714-4.006 0-6.22-1.452-7.378-3.11a6.356 6.356 0 01-1.102-2.932A4.277 4.277 0 012.83 22v-.393a3.188 3.188 0 013.187-3.19zm.355 3.541a2.125 2.125 0 012.125-2.125h11.333a2.125 2.125 0 012.125 2.125v5.667a2.125 2.125 0 01-2.125 2.125H19.122a2.125 2.125 0 01-2.125-2.125zm1.416 2.125a2.834 2.834 0 002.834-2.833H19.83a1.417 1.417 0 01-1.417 1.417zm12.75-1.416a1.417 1.417 0 01-1.416-1.417H28.33a2.833 2.833 0 002.833 2.833zm-1.416 5.666a1.417 1.417 0 011.416-1.416V25.5a2.833 2.833 0 00-2.833 2.833zm-11.334-1.416a1.417 1.417 0 011.417 1.416h1.417a2.833 2.833 0 00-2.834-2.833zm6.375.354a2.48 2.48 0 100-4.96 2.48 2.48 0 000 4.96z"/></svg>