<svg xmlns="http://www.w3.org/2000/svg" width="34" height="34"><path fill="gray" d="M7.65 27.762a11.745 11.745 0 01-2.496-3.683 10.778 10.778 0 01-.904-4.32c0-1.488.283-2.958.85-4.41s1.488-2.816 2.763-4.09c.826-.827 1.847-1.535 3.064-2.126 1.215-.59 2.655-1.057 4.32-1.4 1.664-.341 3.565-.548 5.703-.618 2.136-.071 4.526.011 7.17.247.19 2.503.249 4.805.178 6.907-.07 2.101-.266 3.996-.585 5.683-.318 1.689-.767 3.165-1.345 4.427-.579 1.264-1.293 2.32-2.143 3.17-1.251 1.252-2.58 2.167-3.984 2.745-1.405.579-2.84.868-4.304.868-1.534 0-3.034-.3-4.497-.902-1.464-.603-2.728-1.435-3.79-2.498zm3.967-.566c.684.401 1.387.69 2.108.867a9.23 9.23 0 002.212.266 8.42 8.42 0 003.223-.654c1.063-.438 2.078-1.14 3.046-2.108.425-.425.856-1.021 1.292-1.788.437-.768.816-1.772 1.135-3.012.318-1.24.56-2.738.725-4.497.166-1.76.19-3.855.071-6.287a81.287 81.287 0 00-3.913-.054 31.518 31.518 0 00-4.339.338c-1.44.212-2.81.554-4.108 1.027-1.299.472-2.361 1.121-3.188 1.948-1.062 1.062-1.794 2.113-2.196 3.152-.401 1.039-.602 2.042-.602 3.01 0 1.393.266 2.615.797 3.665.531 1.051.998 1.79 1.4 2.214.99-1.889 2.301-3.701 3.93-5.437a20.625 20.625 0 015.703-4.267 25.858 25.858 0 00-4.445 5.046c-1.263 1.878-2.214 4.068-2.851 6.57z"/></svg>