<svg xmlns="http://www.w3.org/2000/svg" width="93" height="36"><path fill="#4d4d4d" d="M53.866 8.81c0 4.912-3.956 8.809-8.753 8.809-4.882 0-8.753-3.981-8.753-8.81C36.36 3.896 40.316 0 45.113 0c4.881 0 8.753 3.896 8.753 8.81zm-2.104 0c0-3.728-2.946-6.692-6.65-6.692-3.702 0-6.648 2.964-6.648 6.691 0 3.728 2.946 6.692 6.649 6.692s6.733-3.05 6.649-6.692zM8.753 15.501c-3.703 0-6.649-2.964-6.649-6.692 0-3.727 2.946-6.691 6.649-6.691 1.852 0 3.535.762 4.713 1.948l1.43-1.525A8.626 8.626 0 008.754 0C3.87 0 0 3.896 0 8.81c0 4.828 3.871 8.809 8.753 8.809a8.682 8.682 0 006.144-2.541l-1.43-1.525c-1.263 1.186-2.862 1.948-4.714 1.948zm63.286 0c-3.703 0-6.65-2.964-6.65-6.692 0-3.727 2.947-6.691 6.65-6.691 1.851 0 3.535.762 4.713 1.948l1.515-1.525A8.626 8.626 0 0072.123 0c-4.797 0-8.753 3.896-8.753 8.81 0 4.828 3.871 8.809 8.753 8.809a8.682 8.682 0 006.144-2.541l-1.515-1.525a6.657 6.657 0 01-4.713 1.948zM20.874.51H18.77v16.602h2.104zm38.8 5.17H57.57v11.435h2.104zM33.074.51H30.97v16.602h2.104z"/><path fill="#4d4d4d" d="M31.984 7.71H19.78v2.118h12.204zm52.18-7.2H82.06v16.602h2.104z"/><path fill="#4d4d4d" d="M93.001 7.71H83.07v2.118h9.931zm0 7.28H83.07v2.118h9.931zm0-14.48H83.07v2.118h9.931zM58.58 3.983L55.13.51h6.986zM19.443 23.46h-.673v12.113h.673zm10.86 0h-.673v12.113h.673zm8.92 0h-.673v12.113h.673zm8.157 6.946l-.673.17-4.797-7.116h.842z"/><path fill="#4d4d4d" d="M46.71 30.406l.673.17 4.713-7.116h-.757z"/><path fill="#4d4d4d" d="M47.383 30.41h-.673v5.252h.673zm-8.245-1.19H29.88v.678h9.258zm20.705-5.76h-.673v12.113h.673z"/><path fill="#4d4d4d" d="M64.128 23.46H54.87v.678h9.258zm-40.898 0h-4.46v.678h4.46zm0 6.19h-4.46v.678h4.46zm0-6.19v.678c1.515 0 2.777 1.27 2.777 2.71 0 1.525-1.262 2.71-2.777 2.71v.678c1.852 0 3.367-1.524 3.367-3.388 0-1.779-1.515-3.388-3.367-3.388zm55.043 6.098c0 3.557-2.862 6.437-6.397 6.437-3.534 0-6.396-2.88-6.396-6.437 0-3.558 2.862-6.438 6.396-6.438 3.535 0 6.397 2.88 6.397 6.438zm-.673 0c0-3.22-2.525-5.76-5.724-5.76-3.198 0-5.723 2.626-5.723 5.76 0 3.218 2.61 5.76 5.723 5.76 3.114 0 5.724-2.542 5.724-5.76z"/></svg>