<svg xmlns="http://www.w3.org/2000/svg" width="78" height="34"><path fill="#4d4d4d" d="M17.186 17.809c.661.895.992 1.952.992 3.172 0 1.708-.661 3.091-2.066 4.067-1.404.976-3.387 1.464-5.949 1.464H0V6.34h9.585c2.396 0 4.296.488 5.618 1.383s1.983 2.196 1.983 3.823c0 .976-.247 1.87-.66 2.684-.496.732-1.075 1.383-1.901 1.79.991.325 1.9.976 2.561 1.789zm-13.385-3.01h5.37c1.323 0 2.314-.244 3.058-.732.744-.488 1.074-1.138 1.074-2.033s-.33-1.627-1.074-2.115c-.744-.488-1.735-.732-3.057-.732H3.8zm10.576 5.857c0-1.952-1.487-2.928-4.38-2.928H3.802v5.856h6.114c2.975-.081 4.462-1.057 4.462-2.928zM22.23 6.34h3.8v20.172h-3.8zm13.3 19.119c-1.652-.895-2.974-2.115-3.965-3.742-.992-1.545-1.405-3.335-1.405-5.287s.496-3.741 1.405-5.287c.991-1.545 2.313-2.847 3.966-3.742 1.652-.894 3.553-1.301 5.618-1.301 2.066 0 3.966.407 5.62 1.301 1.652.895 2.974 2.115 3.965 3.66.992 1.546 1.405 3.336 1.405 5.37 0 1.951-.496 3.74-1.405 5.286-.991 1.546-2.313 2.847-3.966 3.66-1.653.895-3.553 1.302-5.619 1.302-2.065.081-3.966-.407-5.618-1.22zm9.338-2.928a6.321 6.321 0 002.561-2.522c.661-1.057.909-2.277.909-3.66s-.33-2.522-.909-3.66c-.66-1.058-1.487-1.953-2.561-2.522-1.074-.57-2.314-.895-3.719-.895-1.404 0-2.561.326-3.718.895a6.321 6.321 0 00-2.561 2.522c-.661 1.057-.91 2.277-.91 3.66s.331 2.521.91 3.66c.66 1.139 1.487 1.952 2.644 2.522 1.074.569 2.313.894 3.718.894a6.211 6.211 0 003.636-.894z"/><path fill="#4d4d4d" d="M78 0h-4.297L63.375 14.072l.082.325-2.313 3.986-5.784 7.808h5.206l1.9-2.521 1.9-2.522 1.074 1.464 2.149 2.929.578.65h4.297l-6.858-9.354z" opacity=".21"/><path fill="#4d4d4d" d="M61.81 16.998l6.775 9.191h4.875L64.29 13.5z"/><path fill="#4d4d4d" d="M71.723 6.26l-9.007 12.12-2.148-2.847-3.8-5.043-3.058-4.23h5.206l.413.57 1.817 2.44 1.57 2.114 2.397-3.253 1.404-1.871zm-9.01 12.128L51.228 34.005H45.94l13.386-18.058.743-1.057zM.663 32.045v.732h.992v.326H.663v.895H.25V31.72h1.57v.325zm1.895 1.87a.988.988 0 01-.413-.407c-.082-.163-.165-.407-.165-.57 0-.243.083-.406.165-.569a.988.988 0 01.413-.406c.166-.082.33-.163.579-.163.248 0 .413.081.578.163.165.081.33.244.413.406.083.163.166.407.166.651 0 .244-.083.407-.166.57a.988.988 0 01-.413.406c-.165.082-.33.163-.578.163-.248 0-.413-.163-.579-.244zm.992-.326a1.1 1.1 0 00.248-.325c.082-.163.082-.244.082-.407 0-.162 0-.325-.082-.406-.083-.163-.165-.244-.248-.326-.083-.081-.248-.081-.413-.081-.165 0-.248 0-.413.081a1.125 1.125 0 00-.248.326c0 .081-.083.244-.083.406 0 .163 0 .326.083.407.082.163.165.244.248.325.082.082.248.082.413.082.165 0 .248-.082.413-.082zm2.565.409l-.496-.651h-.496v.65H4.71V31.72h.909c.165 0 .33 0 .496.081.165.082.248.163.33.244.083.163.083.244.083.407 0 .163 0 .325-.083.407-.082.162-.165.244-.33.244l.495.732h-.495zm-.166-1.79c-.082-.081-.247-.081-.413-.081h-.413v.894h.496c.165 0 .33 0 .413-.08.083-.082.165-.164.165-.326a.86.86 0 00-.248-.407zm3.639-.488v2.278h-.413v-.977H8.1v.977h-.33V31.72h.413v.976h1.074v-.976zm2.142 1.952v.326h-1.57V31.72h1.57v.325h-1.157v.57h.992v.325h-.992v.65h1.157zm1.825-.244h-1.074l-.248.57h-.413l.909-2.278h.496l.991 2.278h-.413zm-.082-.325l-.414-.976-.413.976zm.987-1.383h.413v1.952h1.074v.326H14.46zm2.061.325h-.661v-.325h1.818v.325h-.661v1.953h-.496zm3.229-.325v2.278h-.413v-.977h-1.074v.977h-.413V31.72h.413v.976h1.074v-.976zm1.49 1.464v.814h-.414v-.814L20 31.72h.413l.579 1.139.66-1.139h.414zm2.311-1.139h-.661v-.325h1.818v.325h-.744v1.953h-.413zm2.969 1.627v.326h-1.57V31.72h1.57v.325h-1.157v.57h.992v.325h-.992v.65h1.157zm1.99 0v.326h-1.57V31.72h1.57v.325h-1.157v.57h.992v.325h-.992v.65h1.157zm.901-1.627h-.661v-.325h1.818v.325h-.661v1.953h-.413v-1.953zm3.229-.325v2.278h-.413v-.977h-1.074v.977h-.413V31.72h.413v.976h1.074v-.976z"/></svg>