<svg xmlns="http://www.w3.org/2000/svg" width="104" height="36"><path fill="#4d4d4d" d="M30.537 2.966c.187-.093.281-.278.187-.464-.093-.186-.281-.278-.47-.186-.187 0-.281.279-.187.464.094.186.282.279.47.186zM17.095 17.44h1.222v8.165c0 3.155-1.598 4.64-4.698 4.64-1.785 0-3.476-.465-4.415-1.393l.657-.927c.846.835 2.255 1.299 3.664 1.299 2.349 0 3.476-1.021 3.476-3.34v-1.207c-.751 1.114-2.16 1.763-3.664 1.763-2.63 0-4.697-1.856-4.697-4.546 0-2.598 1.973-4.454 4.697-4.454 1.597 0 3.007.65 3.758 1.856zm-.094 4.454c0-2.042-1.503-3.433-3.57-3.433s-3.57 1.391-3.57 3.433c0 2.04 1.503 3.433 3.57 3.433s3.57-1.392 3.57-3.433zm11.462.278c0 2.783-2.067 4.732-4.792 4.732-2.724 0-4.791-1.949-4.791-4.732 0-2.784 2.067-4.732 4.791-4.732 2.725 0 4.792 1.948 4.792 4.732zm-1.316 0c0-2.134-1.503-3.619-3.476-3.619s-3.476 1.485-3.476 3.619c0 2.134 1.503 3.619 3.476 3.619s3.476-1.485 3.476-3.619zm2.073-1.391c0-4.082 1.503-6.03 4.697-6.773l4.228-.928.188 1.113-3.946.928c-2.724.65-3.946 1.949-4.04 4.918.752-1.485 2.161-2.32 3.946-2.32 2.63 0 4.51 1.856 4.51 4.547 0 2.783-1.88 4.639-4.698 4.639-3.1 0-4.885-2.32-4.885-6.124zm1.41 1.485c0 2.04 1.502 3.525 3.475 3.525s3.382-1.484 3.382-3.525c0-2.042-1.315-3.433-3.382-3.433-1.973 0-3.382 1.391-3.476 3.433zm10.425 7.978H39.74v-8.072c0-2.784 1.973-4.732 4.791-4.732 2.725 0 4.698 1.948 4.698 4.732 0 2.783-1.88 4.732-4.604 4.732-1.597 0-2.818-.65-3.57-1.856zm-.094-8.165c0 2.134 1.41 3.619 3.476 3.619 1.973 0 3.476-1.485 3.476-3.619 0-2.134-1.409-3.618-3.476-3.618-1.973 0-3.476 1.484-3.476 3.618zm9.109.093c0-2.784 1.973-4.732 4.697-4.732 1.504 0 2.819.65 3.57 1.856v-1.763h1.316v9.278H58.43v-1.856c-.845 1.3-2.067 1.949-3.664 1.949-2.724 0-4.697-1.949-4.697-4.732zm1.315-.093c0 2.134 1.503 3.619 3.476 3.619s3.476-1.485 3.476-3.619c0-2.134-1.503-3.618-3.476-3.618s-3.476 1.484-3.476 3.618zm18.227-6.394c.47 0 .751-.279.751-.743 0-.464-.282-.742-.751-.742-.376 0-.752.371-.752.742.094.371.376.743.752.743zm-2.35 0c.375 0 .751-.279.751-.743 0-.464-.282-.742-.751-.742a.736.736 0 00-.752.742c0 .371.376.743.752.743zm1.883 1.755H67.83v9.278h1.315zm2.818 9.371l2.913-4.175h2.066v4.175h1.222v-4.175h2.067l2.912 4.175h1.503l-3.382-4.825 3.1-4.546h-1.409l-2.724 4.082h-2.067V17.44h-1.222v4.082h-2.066L72.15 17.44h-1.41l3.101 4.546-3.382 4.825z"/><path fill="#4d4d4d" d="M84.46 22.172c0-2.784 1.973-4.732 4.697-4.732 1.504 0 2.819.65 3.57 1.856v-1.763h1.316v9.278H92.82v-1.856c-.845 1.3-2.067 1.949-3.664 1.949-2.63 0-4.697-1.949-4.697-4.732zm1.41-.093c0 2.134 1.502 3.619 3.475 3.619s3.476-1.485 3.476-3.619c0-2.134-1.503-3.618-3.476-3.618-2.067 0-3.57 1.484-3.476 3.618z"/><path fill="#4d4d4d" d="M104 9v15.866c0 6.217-5.073 11.227-11.368 11.227H11.368C5.073 36.093 0 31.083 0 24.866V9h18.132c1.597-.65 5.825-1.206 5.919-1.299-.376 0-3.476-2.041-3.758-2.969a.507.507 0 01.47-.65h.093l4.886 1.021C26.963 3.155 28.278.928 28.278.928S28.748 0 29.688 0c.47 0 .939.186 1.409.557 2.067 1.391 3.006 2.134 3.006 2.134s-.94.185-1.221.742c0 .186-1.222 2.876-2.537 5.567zm-84.647.65c.564.463 1.597 1.206 2.819 1.948 2.348 1.484 3.852 1.948 4.51 1.948h.093c.376-.464 1.41-2.226 4.98-10.02.187-.557.281-.557.281-.65.094-.092.188-.278.282-.37-.47-.372-1.033-.743-1.691-1.207-.376-.278-.658-.371-.846-.371-.282 0-.47.278-.47.278V1.3s-1.409 2.227-2.536 4.175a1.035 1.035 0 01-.94.557h-.187l-2.913-.557c.658.464 1.316.928 1.691 1.114.376.092.564.278.752.556.188.371.094.835-.094 1.114-.282.464-.47.464-1.597.65-1.973.278-3.382.556-4.134.741zm83.801.185H29.969c-1.127 2.32-2.255 4.36-2.63 4.64-.188.092-.47.185-.752.185-2.349 0-7.516-3.433-8.737-4.825H.846v14.938c0 5.753 4.697 10.392 10.522 10.392h81.264c5.825 0 10.522-4.64 10.522-10.392z"/></svg>