<svg xmlns="http://www.w3.org/2000/svg" width="253" height="64"><g clip-path="url(#clip-0:346)" fill="#fff"><path d="M108.193 7.577V7.24h-6.658v.505h.167c1.997.169 2.83.506 3.163 1.01.332.338.166 1.011-.167 1.853l-4.827 16-4.66-16.842c-.167-.673-.167-1.179 0-1.347.332-.337.998-.674 2.33-.842h.166V7.24h-7.99v.505h.167c1.831.169 2.33 1.18 2.497 2.021l.832 3.537-4.494 13.305-5.326-16.673c-.167-.674-.167-1.18 0-1.516.333-.505.998-.674 2.33-.842h.166V7.24H77.9v.505h.166c1.831.169 2.164 1.01 2.497 2.021l6.492 19.537h1.664l5.16-15.158 4.494 15.158h1.664l5.826-19.537c0-1.179.5-1.852 2.33-2.19zm10.483 21.053c-2.497-.169-2.663-.169-2.663-1.348v-9.095h10.652v9.095c0 1.18-.166 1.18-2.496 1.347h-.167v.506h8.156v-.506h-.166c-2.33-.168-2.497-.168-2.497-1.347V9.092c0-1.178.166-1.178 2.497-1.347h.166V7.24h-8.156v.505h.167c2.33.169 2.496.169 2.496 1.348v8.59h-10.652v-8.59c0-1.18.166-1.18 2.496-1.348h.167V7.24h-8.156v.505h.166c2.33.169 2.497.169 2.497 1.348v18.19c0 1.178-.166 1.178-2.497 1.346h-.166v.506h8.156zm25.3 0c-2.497-.169-2.663-.169-2.663-1.348V9.092c0-1.178.166-1.178 2.496-1.347h.167V7.24h-8.156v.505h.166c2.33.169 2.497.169 2.497 1.348v18.19c0 1.178-.166 1.178-2.497 1.346h-.166v.506h8.156zm3.664-16.337c.665-3.2 1.997-4.716 4.16-4.716h2.164v19.537c0 1.179-.166 1.179-2.496 1.347h-.167v.505h8.156v-.337h-.166c-2.33-.168-2.497-.168-2.497-1.347V7.745h2.164c2.164 0 3.495 1.516 4.16 4.716h.5l-.166-5.221h-16.146l-.166 5.221zm35.119 11.619l-.5-.168c-.665 3.031-2.33 4.716-4.826 4.716h-5.327V18.017h3.33c1.997 0 2.995 1.01 3.328 3.369v.168h.5v-7.41h-.5v.168c-.333 2.358-1.331 3.368-3.329 3.368h-3.329V7.575h5.66c2.163 0 3.495 1.516 4.327 4.716h.5l-.167-5.221H166.78v.505h.166c2.33.169 2.497.169 2.497 1.348v18.19c0 1.178-.166 1.178-2.497 1.346h-.166v.506h15.812zM93.213 52.714L85.889 35.03H80.23v.337h.166c2.664.168 2.664.168 2.664 1.347v18.19c0 1.179-.167 1.179-2.664 1.347h-.166v.505h7.324v-.505h-.167c-3.662-.168-3.994-.168-3.994-1.347V36.883l8.322 20.042h.333l7.323-20.21v18.189c0 1.179-.166 1.179-2.496 1.347h-.167v.505h8.156v-.505h-.166c-2.33-.168-2.497-.168-2.497-1.347V36.883c0-1.18.167-1.18 2.497-1.348h.166v-.505h-5.16zm32.453 2.02c.333 1.01.5 1.515 1.998 1.684h.166v.505h-7.99v-.505h.167c1.498-.169 2.33-.337 2.497-.674.166-.168.166-.505 0-1.01l-1.831-5.39h-8.156l-1.83 5.39c-.167.505-.167.842 0 1.01.332.337 1.33.505 3.328.674h.333v.505h-6.658v-.505c1.664-.337 2.164-.505 2.497-1.684l6.491-19.874h1.665zm-9.154-17.685l-3.829 11.621h7.823zm27.298-1.682c3.162.168 3.661.168 3.661 1.347V52.21l-11.318-17.18h-5.493v.337h.166c2.664.168 2.997.505 2.997 1.684v17.853c0 1.179-.5 1.179-2.997 1.347h-.166v.505h7.324v-.505h-.167c-2.996-.168-3.495-.168-3.495-1.347V37.219l13.316 19.874h.499v-20.21c0-1.18.5-1.18 2.996-1.348h.167v-.505h-7.324v.337zm20.304-.507c5.992 0 10.486 4.716 10.486 10.947 0 6.4-4.327 10.948-10.486 10.948h-9.654v-.506h.166c2.33-.168 2.497-.168 2.497-1.347v-18.19c0-1.178-.166-1.178-2.497-1.347h-.166v-.505zm-4.328 21.39h4.328c4.328 0 7.49-4.38 7.49-10.443s-3.162-10.442-7.49-10.442h-4.328zm33.79-1.516c.333 1.01.666 1.515 2.164 1.684h.167v.505h-7.99v-.505h.167c1.498-.169 2.33-.337 2.496-.674.167-.168.167-.505 0-1.01l-1.83-5.39h-8.157l-1.83 5.39c-.167.505-.167.842 0 1.01.332.337 1.331.505 3.328.674h.167v.505H175.6v-.505c1.664-.337 2.164-.505 2.497-1.684l6.658-19.874h1.664zm-9.154-17.685l-3.829 11.621h7.823zm30.131 17.181c1.165 1.684 2.496 2.021 3.495 2.021v.505h-4.66c-.666-.842-1.665-2.19-2.164-3.031l-1.831-3.032c-.833-1.347-1.831-2.863-2.996-3.537h-2.164v7.748c0 1.179.166 1.179 2.496 1.347h.167v.505h-8.156v-.505h.166c2.33-.168 2.497-.168 2.497-1.347v-18.19c0-1.179-.166-1.179-2.497-1.347h-.166v-.337h8.988c4.494 0 7.324 2.358 7.324 6.063 0 1.348-.666 5.895-7.49 6.232 2.663.842 3.495 1.852 4.327 3.031l2.663 3.874zm-10.154-18.863V46.65h2.164c4.66 0 5.66-3.032 5.66-5.558 0-1.347-.5-5.726-4.994-5.726zm16.481 0c2.497.168 2.663.168 2.663 1.347v18.19c0 1.179-.166 1.179-2.497 1.347h-.166v.505h8.156v-.505h-.167c-2.33-.168-2.496-.168-2.496-1.347V36.883c0-1.18.166-1.18 2.496-1.348h.167v-.505h-8.156zm24.8-.507v.505h.166c2.996.169 3.662.169 3.662 1.348v15.494l-11.485-17.179h-5.493v.337h.166c2.664.169 2.997.506 2.997 1.684v17.853c0 1.179-.5 1.18-2.997 1.348h-.166v.505h7.324v-.505h-.167c-2.996-.169-3.495-.169-3.495-1.348V37.218l13.316 19.874h.499v-20.21c0-1.18.5-1.18 2.996-1.348h.167v-.506h-7.49zM31.625 64C14.148 64 0 49.684 0 32 0 14.316 14.148 0 31.625 0S63.25 14.316 63.25 32c0 17.684-14.148 32-31.625 32zm0-63.158C14.647.842.832 14.822.832 32c0 17.179 13.815 31.326 30.96 31.326C48.768 63.326 62.75 49.347 62.75 32 62.584 14.821 48.769.842 31.625.842z"/><path d="M17.476 60.13l-.666-.169L31.29.34l.667.168zM5.118 15.887l-.807.205 10.722 43.12.807-.205z"/><path d="M32.152.32l-.801.228 16.268 58.706.802-.227z"/><path d="M58.356 15.913L47.586 59.02l.807.207 10.77-43.107z"/><path d="M30.29 6.235L31.622.34l16.311 58.779-2.663 1.347zM4.66 16l2.164-3.2 11.152 44.463-.832 2.863-1.831-1.01z"/></g></svg>