<svg xmlns="http://www.w3.org/2000/svg" width="21" height="21" viewBox="0 0 21 21"><g><g><g/><g><g><path fill="#333" d="M13.896 3.5a1.422 1.422 0 0 1 1.42 1.341l.001.08v1.204h.766a2.297 2.297 0 0 1 2.297 2.297v5.906a1.422 1.422 0 0 1-1.422 1.422h-1.64v.766a1.422 1.422 0 0 1-1.422 1.422H7.114a1.422 1.422 0 0 1-1.421-1.422v-.766H4.051a1.422 1.422 0 0 1-1.422-1.422V8.422a2.297 2.297 0 0 1 2.297-2.297h.766V4.922a1.422 1.422 0 0 1 1.34-1.42l.081-.002zm-7.11 13.016c0 .18.147.328.328.328h6.782a.328.328 0 0 0 .328-.328v-3.72a.328.328 0 0 0-.328-.327H7.114a.328.328 0 0 0-.328.328zm7.11-11.922H7.114a.328.328 0 0 0-.325.283l-.003.045v1.203h7.438V4.922a.329.329 0 0 0-.284-.325z"/></g></g></g></g></svg>