<svg xmlns="http://www.w3.org/2000/svg" width="19" height="19" viewBox="0 0 19 19">
	<defs>
		<clipPath id="kvvya">
			<path
				d="M15.991 3.789A4.7 4.7 0 0 0 12.659 2.4c-1.172 0-2.3.44-3.164 1.233a4.674 4.674 0 0 0-4.97-.87 4.704 4.704 0 0 0-1.528 1.029c-1.863 1.87-1.862 4.796.001 6.66l6.497 6.497 6.498-6.498c1.863-1.863 1.864-4.789-.002-6.662z" />
		</clipPath>
	</defs>
	<g>
		<g>
			<g />
			<g>
				<path
					d="M15.991 3.789A4.7 4.7 0 0 0 12.659 2.4c-1.172 0-2.3.44-3.164 1.233a4.674 4.674 0 0 0-4.97-.87 4.704 4.704 0 0 0-1.528 1.029c-1.863 1.87-1.862 4.796.001 6.66l6.497 6.497 6.498-6.498c1.863-1.863 1.864-4.789-.002-6.662z" />
			</g>
			<g clip-path="url(#kvvya)">
				<g>
					<path fill="#fad755" d="M19 11.21H1v5.419h18z" />
				</g>
				<g>
					<path fill="#2858b3" d="M19 5.8H1v5.419h18z" />
				</g>
			</g>
		</g>
	</g>
</svg>