<svg xmlns="http://www.w3.org/2000/svg" width="14" height="14" viewBox="0 0 14 14"><g><g><g/><g><path fill="#4d4d4d" d="M3.497 12.83c-.321 0-.596-.114-.824-.342a1.124 1.124 0 0 1-.343-.825V5.83c0-.32.114-.596.343-.824.228-.229.503-.343.824-.343h5.25V3.497c0-.486-.17-.9-.51-1.24-.341-.34-.754-.51-1.24-.51-.399 0-.751.119-1.057.357A1.744 1.744 0 0 0 5.32 3a.82.82 0 0 1-.226.357.516.516 0 0 1-.358.139.593.593 0 0 1-.466-.198c-.117-.13-.156-.279-.117-.444a2.869 2.869 0 0 1 1.006-1.626A2.803 2.803 0 0 1 6.997.58c.807 0 1.495.284 2.063.853.57.569.853 1.257.853 2.064v1.166h.584c.32 0 .595.114.824.343.228.228.342.503.342.824v5.833c0 .321-.114.596-.342.825a1.125 1.125 0 0 1-.824.342zm0-1.167h7V5.83h-7zm2.676-2.092a1.124 1.124 0 0 1-.343-.824c0-.321.114-.596.343-.825.228-.228.503-.342.824-.342.32 0 .595.114.824.342.228.23.342.504.342.825 0 .32-.114.595-.342.824a1.125 1.125 0 0 1-.824.342c-.321 0-.596-.114-.824-.342zM3.497 5.83v5.833"/></g></g></g></svg>