<svg xmlns="http://www.w3.org/2000/svg" width="44" height="44" viewBox="0 0 44 44"><g><g><g><path fill="#7a934f" d="M44 22c0 12.15-9.85 22-22 22S0 34.15 0 22 9.85 0 22 0s22 9.85 22 22z"/></g><g><g/><g><g><path fill="#fff" d="M31.67 13.5a1.5 1.5 0 0 1 1.5 1.5v12a1.5 1.5 0 0 1-1.5 1.5h-3.75a3 3 0 0 0-2.4 1.2l-2.85 3.8-2.85-3.8a3 3 0 0 0-2.4-1.2h-3.75a1.5 1.5 0 0 1-1.5-1.5V15a1.5 1.5 0 0 1 1.5-1.5zm-18-1.5a3 3 0 0 0-3 3v12a3 3 0 0 0 3 3h3.75a1.5 1.5 0 0 1 1.2.6l2.85 3.8a1.5 1.5 0 0 0 2.4 0l2.85-3.8a1.5 1.5 0 0 1 1.2-.6h3.75a3 3 0 0 0 3-3V15a3 3 0 0 0-3-3z"/></g><g><path fill="#fff" d="M15.17 17.25a.75.75 0 0 1 .75-.75h13.5a.75.75 0 1 1 0 1.5h-13.5a.75.75 0 0 1-.75-.75zm0 3.75a.75.75 0 0 1 .75-.75h13.5a.75.75 0 1 1 0 1.5h-13.5a.75.75 0 0 1-.75-.75zm0 3.75a.75.75 0 0 1 .75-.75h7.5a.75.75 0 0 1 0 1.5h-7.5a.75.75 0 0 1-.75-.75z"/></g></g></g></g></g></svg>