<svg xmlns="http://www.w3.org/2000/svg" width="15" height="15" viewBox="0 0 15 15"><g><g><g/><g><path fill="#4d4d4d" d="M6.338 8.605A8.488 8.488 0 0 0 9.422 10.6l1.57-1.25a.28.28 0 0 1 .317 0l2.917 1.879a.83.83 0 0 1 .35 1.007.834.834 0 0 1-.213.318l-1.366 1.35a1.667 1.667 0 0 1-1.513.446 14.621 14.621 0 0 1-7.146-3.75A14.08 14.08 0 0 1 .476 3.588a1.575 1.575 0 0 1 .458-1.48L2.351.743a.833.833 0 0 1 1.3.134l1.941 2.879a.263.263 0 0 1 0 .312L4.313 5.605a8.23 8.23 0 0 0 2.025 3z"/></g><g/></g></g></svg>