<svg xmlns="http://www.w3.org/2000/svg" width="29" height="29" viewBox="0 0 29 29"><g><g><g/><g><path fill="#333" d="M0 14.891C0 7.096 6.316.78 14.111.78c7.795 0 14.111 6.316 14.111 14.111 0 7.795-6.316 14.111-14.11 14.111C6.315 29.002 0 22.686 0 14.892zm6.457-.306c-.932.365-.916.881-.16 1.121l3.483 1.087 8.08-5.087c.375-.25.723-.109.439.142l-6.539 5.907-.25 3.59c.364 0 .523-.16.711-.347l1.702-1.64 3.528 2.6c.643.365 1.103.177 1.274-.597l2.317-10.914-.001.001c.204-.954-.347-1.337-.979-1.108z"/></g></g></g></svg>