<svg xmlns="http://www.w3.org/2000/svg" width="16" height="15" viewBox="0 0 16 15"><g><g><g/><g><path fill="#4d4d4d" d="M13.186 13.21a.117.117 0 0 1-.117.12h-.88a.116.116 0 0 1-.117-.114 4.367 4.367 0 0 0-1.286-2.993 4.366 4.366 0 0 0-3.108-1.287 4.366 4.366 0 0 0-3.109 1.287 4.367 4.367 0 0 0-1.286 2.993.117.117 0 0 1-.117.114h-.879a.119.119 0 0 1-.084-.035.118.118 0 0 1-.033-.085 5.502 5.502 0 0 1 1.613-3.773 5.455 5.455 0 0 1 1.75-1.181l.018-.007a3.632 3.632 0 1 1 4.254-.001l.017.006a5.502 5.502 0 0 1 1.75 1.181 5.478 5.478 0 0 1 1.614 3.775zM9.459 7.084a2.503 2.503 0 0 0 .738-1.781c0-.673-.262-1.305-.738-1.781a2.503 2.503 0 0 0-1.781-.739c-.673 0-1.305.262-1.781.739a2.503 2.503 0 0 0-.739 1.78c0 .673.263 1.306.739 1.782a2.503 2.503 0 0 0 1.78.738c.673 0 1.306-.262 1.782-.738z"/></g></g></g></svg>