<svg xmlns="http://www.w3.org/2000/svg" width="14" height="16"><path fill="#7a934f" d="M.01 4c0-.53.184-1.04.513-1.414A1.647 1.647 0 011.76 2h10.5c.464 0 .91.21 1.237.586.329.375.513.884.513 1.414v1h-14zm14 3v5c0 .53-.184 1.04-.513 1.414A1.647 1.647 0 0112.26 14H1.76c-.464 0-.91-.21-1.237-.586A2.154 2.154 0 01.01 12V7zM2.635 9a.824.824 0 00-.619.293A1.077 1.077 0 001.76 10v1c0 .265.092.52.256.707a.824.824 0 00.619.293h.875a.824.824 0 00.619-.293c.164-.187.256-.442.256-.707v-1c0-.265-.092-.52-.256-.707A.824.824 0 003.51 9z"/></svg>