<svg xmlns="http://www.w3.org/2000/svg" width="19" height="19"><defs><clipPath id="a"><path d="M15.991 3.789A4.7 4.7 0 0012.659 2.4c-1.172 0-2.3.44-3.164 1.233a4.674 4.674 0 00-4.97-.87 4.704 4.704 0 00-1.528 1.029c-1.863 1.87-1.862 4.796.001 6.66l6.497 6.497 6.498-6.498c1.863-1.863 1.864-4.789-.002-6.662z"/></clipPath></defs><path d="M15.991 3.789A4.7 4.7 0 0012.659 2.4c-1.172 0-2.3.44-3.164 1.233a4.674 4.674 0 00-4.97-.87 4.704 4.704 0 00-1.528 1.029c-1.863 1.87-1.862 4.796.001 6.66l6.497 6.497 6.498-6.498c1.863-1.863 1.864-4.789-.002-6.662z"/><g clip-path="url(#a)"><path fill="#fad755" d="M19 11.21H1v5.419h18z"/><path fill="#2858b3" d="M19 5.8H1v5.419h18z"/></g></svg>