<svg xmlns="http://www.w3.org/2000/svg" width="29" height="29"><path fill="#333" d="M14.516 18.894c2.307 0 4.177-1.812 4.177-4.047 0-2.235-1.87-4.047-4.177-4.047-2.306 0-4.176 1.812-4.176 4.047 0 2.235 1.87 4.047 4.176 4.047z"/><path fill="#333" d="M20.982 15.074c0 3.46-2.894 6.263-6.464 6.263-3.57 0-6.465-2.804-6.465-6.263 0-.62.094-1.218.267-1.784H6.41v8.785c0 .455.372.826.827.826h14.481a.83.83 0 00.828-.826V13.29h-1.831a6.09 6.09 0 01.267 1.784zm-1.726-4.161h2.35a.938.938 0 00.937-.936v-2.24a.938.938 0 00-.936-.937h-2.35a.939.939 0 00-.937.936v2.241c0 .515.421.936.936.936z"/><path fill="#333" d="M28.612 14.891c0 7.793-6.317 14.111-14.11 14.111C6.707 29.002.39 22.685.39 14.892.39 7.097 6.708.78 14.501.78c7.794 0 14.111 6.318 14.111 14.111zM22.23 25.29c1.468 0 2.67-1.087 2.67-2.67V7.163c0-1.582-1.201-2.67-2.67-2.67H6.772c-1.468 0-2.67 1.088-2.67 2.67v15.459c0 1.582 1.202 2.669 2.67 2.669z"/></svg>