<svg xmlns="http://www.w3.org/2000/svg" width="17" height="17"><path fill="#7a934f" d="M4.268 3.498a1.67 1.67 0 011.667-1.67l5.159-.008a1.67 1.67 0 011.672 1.67v.757h.607A2.428 2.428 0 0115.8 6.676v4.25a1.821 1.821 0 01-1.821 1.821h-1.214v.608a1.821 1.821 0 01-1.822 1.82H6.087a1.821 1.821 0 01-1.821-1.82v-.608H3.05a1.821 1.821 0 01-1.821-1.821v-4.25a2.429 2.429 0 012.429-2.429h.61v-.75zm7.587-.008a.76.76 0 00-.76-.76l-5.158.009a.759.759 0 00-.758.759v.75h6.676zM6.087 9.408a.91.91 0 00-.91.91v3.037a.91.91 0 00.91.91h4.857a.91.91 0 00.911-.91v-3.036a.911.911 0 00-.91-.91z"/></svg>