<svg xmlns="http://www.w3.org/2000/svg" width="51" height="42"><path fill="#bc9876" d="M0 10c0-4.714 0-7.071 1.464-8.536C2.93 0 5.286 0 10 0h31c4.714 0 7.071 0 8.536 1.464C51 2.93 51 5.286 51 10v22c0 4.714 0 7.071-1.464 8.536C48.07 42 45.713 42 41 42H10c-4.714 0-7.071 0-8.536-1.464C0 39.07 0 36.713 0 32z"/><path fill="#fff" d="M14.8 16.45a3.85 3.85 0 013.85-3.85h14.7a3.85 3.85 0 013.85 3.85v9.1a3.85 3.85 0 01-3.85 3.85h-14.7a3.85 3.85 0 01-3.85-3.85zM16.2 21v4.55A2.45 2.45 0 0018.65 28h3.15v-6.01l-2.304 2.306a.701.701 0 01-.992-.992L20.81 21zm1.775-1.4a2.8 2.8 0 013.825-3.825V14h-3.15a2.45 2.45 0 00-2.45 2.45v3.15zm3.825 0v-1.4a1.4 1.4 0 10-1.4 1.4zm1.4 0h1.4a1.4 1.4 0 10-1.4-1.4zm12.6 0v-3.15A2.45 2.45 0 0033.35 14H23.2v1.775a2.8 2.8 0 013.825 3.825zM24.19 21l2.306 2.304a.701.701 0 01-.992.992L23.2 21.99V28h10.15a2.45 2.45 0 002.45-2.45V21z"/></svg>