<svg xmlns="http://www.w3.org/2000/svg" width="121" height="30" viewBox="0 0 121 30"><g><g><g/><g><g><g><path fill="#4d4d4d" d="M51.748 3.548V3.39h-3.184v.237h.08c.955.079 1.353.237 1.512.474.16.157.08.473-.08.868l-2.308 7.5-2.23-7.895c-.079-.316-.079-.552.001-.631.16-.158.478-.316 1.114-.395h.08V3.39h-3.821v.237h.08c.875.079 1.114.552 1.194.947l.398 1.658-2.15 6.237-2.547-7.816c-.08-.316-.08-.552 0-.71.16-.237.478-.316 1.114-.395h.08V3.39H37.26v.237h.08c.875.079 1.034.474 1.194.947l3.104 9.158h.796l2.468-7.105 2.15 7.105h.796l2.786-9.158c0-.552.239-.868 1.114-1.026z"/></g><g><path fill="#4d4d4d" d="M56.76 13.416c-1.193-.079-1.273-.079-1.273-.631V8.522h5.095v4.263c0 .552-.08.552-1.194.631h-.08v.237h3.9v-.237h-.079c-1.114-.079-1.194-.079-1.194-.631V4.258c0-.552.08-.552 1.194-.631h.08V3.39h-3.901v.237h.08c1.114.079 1.194.079 1.194.631v4.027h-5.095V4.258c0-.552.08-.552 1.194-.631h.08V3.39H52.86v.237h.08c1.114.079 1.194.079 1.194.631v8.527c0 .552-.08.552-1.194.631h-.08v.237h3.9z"/></g><g><path fill="#4d4d4d" d="M68.86 13.416c-1.193-.079-1.273-.079-1.273-.631V4.258c0-.552.08-.552 1.194-.631h.08V3.39H64.96v.237h.08c1.114.079 1.194.079 1.194.631v8.527c0 .552-.08.552-1.194.631h-.08v.237h3.9z"/></g><g><path fill="#4d4d4d" d="M70.609 5.758c.318-1.5.955-2.21 1.99-2.21h1.035v9.158c0 .552-.08.552-1.194.631h-.08v.237h3.9v-.158h-.079c-1.114-.079-1.194-.079-1.194-.631V3.627h1.035c1.035 0 1.672.71 1.99 2.21h.239l-.08-2.447H70.45l-.08 2.447z"/></g><g><path fill="#4d4d4d" d="M87.402 11.215l-.239-.08c-.318 1.422-1.114 2.211-2.308 2.211h-2.548V8.452H83.9c.956 0 1.433.473 1.593 1.579v.078h.238V6.636h-.238v.079c-.16 1.105-.637 1.579-1.593 1.579h-1.592V3.557h2.707c1.035 0 1.672.71 2.07 2.21h.238l-.08-2.447H79.76v.237h.08c1.114.079 1.194.079 1.194.631v8.527c0 .552-.08.552-1.194.631h-.08v.237h7.562z"/></g><g><path fill="#4d4d4d" d="M44.58 24.71l-3.503-8.29H38.37v.158h.08c1.273.079 1.273.079 1.273.631v8.527c0 .552-.08.552-1.273.631h-.08v.237h3.503v-.237h-.08c-1.751-.079-1.91-.079-1.91-.631v-8.448l3.98 9.395h.159l3.503-9.474v8.527c0 .552-.08.552-1.194.631h-.08v.237h3.9v-.237h-.079c-1.114-.079-1.194-.079-1.194-.631v-8.448c0-.552.08-.552 1.194-.631h.08v-.237h-2.468z"/></g><g><path fill="#4d4d4d" d="M60.097 25.656c.16.473.24.71.956.79h.08v.236H57.31v-.237h.08c.716-.079 1.114-.158 1.194-.316.08-.078.08-.236 0-.473l-.876-2.527h-3.9l-.876 2.527c-.08.237-.08.395 0 .473.16.158.637.237 1.592.316h.16v.237H51.5v-.237c.796-.158 1.035-.237 1.194-.79L55.8 16.34h.796zm-4.378-8.29l-1.83 5.448h3.74z"/></g><g><path fill="#4d4d4d" d="M68.779 16.578c1.512.079 1.751.079 1.751.631v7.264l-5.413-8.053H62.49v.158h.08c1.273.079 1.432.237 1.432.79v8.368c0 .552-.238.552-1.432.631h-.08v.237h3.503v-.237h-.08c-1.433-.079-1.672-.079-1.672-.631v-8.29l6.369 9.316h.239v-9.474c0-.552.238-.552 1.432-.631h.08v-.237h-3.503v.158z"/></g><g><path fill="#4d4d4d" d="M78.487 16.34c2.866 0 5.015 2.21 5.015 5.132 0 3-2.07 5.131-5.015 5.131H73.87v-.237h.08c1.114-.079 1.194-.079 1.194-.631v-8.527c0-.552-.08-.552-1.194-.631h-.08v-.237zm-2.07 10.026h2.07c2.07 0 3.582-2.052 3.582-4.894 0-2.843-1.512-4.895-3.582-4.895h-2.07z"/></g><g><path fill="#4d4d4d" d="M92.577 25.656c.16.473.319.71 1.035.79h.08v.236H89.87v-.237h.08c.716-.079 1.114-.158 1.193-.316.08-.078.08-.236 0-.473l-.875-2.527h-3.9l-.876 2.527c-.08.237-.08.395 0 .473.159.158.636.237 1.592.316h.08v.237H83.98v-.237c.796-.158 1.035-.237 1.194-.79l3.184-9.315h.796zm-4.378-8.29l-1.83 5.448h3.74z"/></g><g><path fill="#4d4d4d" d="M102.612 25.42c.558.79 1.195.947 1.672.947v.237h-2.229c-.318-.395-.796-1.026-1.035-1.42l-.875-1.422c-.398-.631-.876-1.342-1.433-1.658h-1.035v3.632c0 .552.08.552 1.194.631h.08v.237H95.05v-.237h.08c1.114-.079 1.194-.079 1.194-.631v-8.527c0-.552-.08-.552-1.194-.631h-.08v-.158h4.299c2.149 0 3.502 1.105 3.502 2.842 0 .632-.318 2.763-3.582 2.921 1.274.395 1.672.869 2.07 1.421l1.273 1.816zm-4.855-8.842v5.29h1.034c2.23 0 2.707-1.422 2.707-2.606 0-.631-.239-2.684-2.388-2.684h-1.433z"/></g><g><path fill="#4d4d4d" d="M105.64 16.578c1.194.079 1.274.079 1.274.631v8.527c0 .552-.08.552-1.194.631h-.08v.237h3.9v-.237h-.079c-1.114-.079-1.194-.079-1.194-.631v-8.448c0-.552.08-.552 1.194-.631h.08v-.237h-3.901z"/></g><g><path fill="#4d4d4d" d="M117.499 16.34v.237h.08c1.432.079 1.75.079 1.75.631v7.264l-5.492-8.053h-2.627v.158h.08c1.273.079 1.433.237 1.433.79v8.368c0 .552-.24.552-1.433.631h-.08v.237h3.503v-.237h-.08c-1.433-.079-1.672-.079-1.672-.631v-8.29l6.369 9.316h.239v-9.474c0-.552.238-.552 1.432-.631h.08v-.237H117.5z"/></g></g><g><g><g><g><path fill="#4d4d4d" d="M15.125 30C6.766 30 0 23.29 0 15S6.766 0 15.125 0 30.25 6.71 30.25 15s-6.766 15-15.125 15zm0-29.605C7.005.395.398 6.947.398 15s6.607 14.684 14.807 14.684c8.12 0 14.806-6.552 14.806-14.684C29.931 6.947 23.324.395 15.125.395z"/></g></g><g><g><path fill="#4d4d4d" d="M8.358 28.186l-.318-.079L14.966.16l.318.079z"/></g></g><g><g><path fill="#4d4d4d" d="M2.448 7.447l-.386.096L7.19 27.756l.386-.096z"/></g></g><g><g><path fill="#4d4d4d" d="M15.377.15l-.383.107 7.78 27.519.384-.107z"/></g></g><g><g><path fill="#4d4d4d" d="M27.91 7.46l-5.152 20.206.386.096 5.151-20.206z"/></g></g></g><g><g><path fill="#4d4d4d" d="M14.49 2.923L15.127.16l7.801 27.553-1.274.631z"/></g></g><g><g><path fill="#4d4d4d" d="M2.23 7.5L3.265 6l5.333 20.842-.398 1.342-.875-.474z"/></g></g></g></g></g></g></svg>