<svg xmlns="http://www.w3.org/2000/svg" width="82" height="35" viewBox="0 0 82 35"><g><g><g/><g><g><g><g><path fill="#4d4d4d" d="M.47 34.294V4.564c0-.237.158-.394.395-.394.236 0 .394.157.394.393v29.73c0 .237-.158.394-.394.394-.316 0-.395-.157-.395-.393z"/></g></g><g><g><path fill="#4d4d4d" d="M.87 34.996c-.394 0-.71-.236-.71-.708V4.558c0-.393.237-.708.71-.708.395 0 .71.236.71.708v29.73c-.078.472-.315.708-.71.708zm-.158-.63H.87v-.078V4.48H.712v29.888z"/></g></g></g><g><g><g><path fill="#4d4d4d" d="M72.213 4.406l9.47 20.37c.08.237.08.394-.157.551-.237.079-.395.079-.553-.157L71.818 5.507 62.742 25.17c-.078.236-.315.315-.552.157-.237-.078-.316-.314-.158-.55l9.47-20.371c.08-.157.159-.236.395-.236.158 0 .237.079.316.236z"/></g></g><g><g><path fill="#4d4d4d" d="M62.423 25.645c-.08 0-.237 0-.316-.079-.395-.157-.553-.55-.316-.943l9.47-20.45c.159-.236.317-.393.632-.393.316 0 .474.157.632.393l9.47 20.371c.158.393.08.708-.315.944-.395.157-.71.079-.947-.315L71.814 6.218l-8.76 19.034c-.158.236-.395.393-.631.393zm9.391-20.843l9.313 20.214c.08.079.08.079.158.079.079 0 .079-.079.079-.079v-.079l-9.47-20.37c0-.08-.08-.08-.08-.08-.079 0-.079 0-.079.08l-9.47 20.37v.079l.079.079h.079l.079-.079z"/></g></g></g><g><g><g><path fill="#4d4d4d" d="M38.984 4.406l9.47 20.37c.08.237.08.394-.157.551-.237.079-.395.079-.552-.157L38.668 5.507 29.592 25.17c-.078.236-.315.315-.552.157-.237-.078-.316-.314-.158-.55l9.47-20.371c.08-.157.159-.236.395-.236.08 0 .237.079.237.236z"/></g></g><g><g><path fill="#4d4d4d" d="M48.065 25.645a.593.593 0 0 1-.552-.393l-8.84-19.034-8.839 19.034c-.158.393-.552.472-.947.315-.395-.158-.553-.551-.316-.944l9.47-20.45c.159-.236.317-.393.632-.393.316 0 .474.157.632.393l9.47 20.371c.158.393.08.708-.315.944-.158.157-.316.157-.395.157zm-18.941-.629l.158.079.078-.079 9.313-20.214 9.313 20.214c0 .079.079.079.079.079h.079c.079 0 .079-.079.079-.079v-.079l-9.47-20.37c0-.08-.08-.08-.08-.08-.079 0-.079 0-.079.08l-9.47 20.37z"/></g></g></g><g><g><g><g><path fill="#4d4d4d" d="M54.618 25.093l-9.47-20.37c-.08-.237-.08-.394.157-.551.237-.079.395-.079.552.157l9.077 19.663L64.01 4.33c.078-.236.315-.314.552-.157.237.078.316.314.158.55l-9.47 20.371c-.08.157-.159.236-.395.236 0 0-.158-.079-.237-.236z"/></g></g><g><g><path fill="#4d4d4d" d="M55.008 25.644c-.315 0-.473-.157-.631-.393L44.907 4.88c-.159-.393-.08-.708.315-.944.395-.157.71-.079.947.315l8.84 19.033 8.839-19.033c.157-.394.473-.472.868-.315.394.157.552.55.315.944l-9.47 20.45c-.08.157-.316.314-.553.314zm-9.47-21.236zm0 0l-.158.079v.078l9.47 20.371c0 .079.08.079.08.079.078 0 .078 0 .078-.079l9.47-20.37v-.08l-.078-.078h-.079l-.079.079L55.008 24.7l-9.47-20.292c0 .001 0 .078 0 0 0 0 .079 0 0 0zm0 0zm0 0c.079.079.079 0 0 0z"/></g></g></g><g><g><g><path fill="#4d4d4d" d="M54.61 24.38v9.753c0 .236.158.393.395.393.236 0 .394-.157.394-.393V24.38z"/></g></g><g><g><path fill="#4d4d4d" d="M55.01 34.767c-.394 0-.71-.236-.71-.708V24.07h1.342v10.067c.079.394-.237.63-.632.63zm-.079-.55h.158v-9.518h-.237v9.438z"/></g></g></g></g><g><g><g><g><path fill="#4d4d4d" d="M6.47 4.251c-.158-.078-.315-.157-.473-.078a.432.432 0 0 0-.237.393v20.45c0 .235.158.392.395.392.236 0 .394-.157.394-.393V5.588l6.393 7.079a.382.382 0 0 0 .552 0c.158-.157.158-.315 0-.55zm18.073.315v19.348l-6.392-7.079c-.158-.157-.316-.157-.553 0-.158.158-.158.315 0 .551l7.103 7.865c.08.079.237.157.316.157h.158a.432.432 0 0 0 .237-.393V4.565c0-.235-.158-.392-.395-.392-.237 0-.395.157-.474.393z"/></g></g><g><g><path fill="#4d4d4d" d="M25.023 25.637c-.158 0-.316-.078-.474-.236l-7.103-7.865c-.316-.314-.237-.708 0-.944.316-.314.71-.235.947.08l5.92 6.527V4.56c0-.394.236-.708.71-.708.394 0 .71.236.71.708v20.45c0 .314-.158.55-.474.628h-.236zm-7.024-8.651s-.08 0 0 0l-.158.078.079.079 7.103 7.865c.079.079.079 0 .079 0 .079 0 .079-.078.079-.078V4.4h-.158v20.214zM6.16 25.637c-.394 0-.71-.236-.71-.708V4.48c0-.315.158-.55.395-.63.315-.078.552 0 .789.158l7.103 7.865c.158.158.237.315.158.472 0 .158-.08.315-.237.472-.316.236-.631.236-.947-.079L6.87 6.29v18.64c0 .472-.316.708-.71.708zm0-.55h.08V4.795l6.944 7.629.08.079.078-.08.08-.078-.08-.078L6.24 4.4s-.079-.078-.158 0c0 0-.079 0-.079.08V24.93c.08.078.08.078.08.157h.078zm-.079 0z"/></g></g></g></g><g><g><g><path fill="#4d4d4d" d="M1.657.865a.874.874 0 0 1-.868.865C.316 1.73 0 1.337 0 .865S.395 0 .868 0c.474 0 .79.393.79.865z"/></g></g></g><g><g><g><path fill="#4d4d4d" d="M39.456 15.575a.874.874 0 0 1-.868.865.874.874 0 0 1-.868-.865c0-.472.395-.865.868-.865.553.079.868.393.868.865z"/></g></g></g><g><g><g><path fill="#4d4d4d" d="M72.687 15.575a.874.874 0 0 1-.868.865c-.473 0-.789-.393-.789-.865s.395-.865.868-.865c.474 0 .79.393.79.865z"/></g></g></g></g></g></g></svg>