<svg width="316" height="316" viewBox="0 0 316 316" fill="none" xmlns="http://www.w3.org/2000/svg">
<g style="mix-blend-mode:multiply" opacity="0.4">
<path d="M0 157.164C0.054958 136.47 4.18535 115.989 12.1553 96.8916C20.1253 77.794 31.7788 60.4532 46.4504 45.8592C61.1221 31.2653 78.5246 19.7041 97.6643 11.8356C116.804 3.96715 137.306 -0.0544013 158 0.000555742C178.693 0.0555127 199.174 4.1859 218.272 12.1559C237.369 20.1259 254.71 31.7794 269.304 46.4511C283.898 61.1227 295.459 78.5252 303.328 97.6649C311.196 116.805 315.218 137.307 315.163 158.001L157.581 157.582L0 157.164Z" fill="#0858B9"/>
<g style="mix-blend-mode:multiply" opacity="0.4">
<path d="M315.164 158C315.164 178.694 311.088 199.185 303.169 218.304C295.25 237.423 283.642 254.794 269.009 269.427C254.377 284.06 237.005 295.667 217.886 303.587C198.767 311.506 178.276 315.582 157.582 315.582C136.888 315.582 116.397 311.506 97.278 303.587C78.1592 295.667 60.7875 284.06 46.1547 269.427C31.5218 254.794 19.9144 237.423 11.9952 218.304C4.07598 199.185 -2e-06 178.694 0 158H157.582H315.164Z" fill="#FFD801"/>
</g>
</g>
</svg>
